<svg width="117" height="123" viewBox="0 0 117 123" fill="none" xmlns="http://www.w3.org/2000/svg">
<g clip-path="url(#clip0_4_2)">
<rect width="122.5" height="115.627" transform="translate(116.127 0.5) rotate(90)" fill="black"/>
<path d="M16.8127 37.2904L26.3746 37.2904M16.8127 37.2904C18.4108 37.2904 19.8219 36.2477 20.291 34.7199L26.596 14.1885C27.0651 12.6607 28.4761 11.618 30.0743 11.618L39.9183 11.618C41.9279 11.618 43.5569 13.247 43.5569 15.2566L43.5569 37.2904M16.8127 37.2904L11.0115 37.2904C9.002 37.2904 7.37294 38.9195 7.37294 40.929L7.37293 47.1955C7.37293 49.2051 9.002 50.8342 11.0115 50.8342L14.8523 50.8342M43.5569 50.8342L45.7805 50.8342L91.0611 55.963M43.5569 50.8342L43.5569 37.2904M43.5569 50.8342L26.3746 50.8342M43.5569 37.2904L26.3746 37.2904M26.3746 37.2904L26.3746 50.8342M26.3746 50.8342L14.8523 50.8342M91.0611 55.963L105.014 57.5435C106.854 57.7518 108.243 59.3079 108.243 61.159L108.243 63.9582C108.243 65.8093 106.854 67.3653 105.014 67.5737L91.0611 69.1541M91.0611 55.963L91.0611 69.1541M14.8523 50.8342L13.508 57.5559C13.461 57.7909 13.4373 58.0299 13.4373 58.2695L13.4373 66.8476C13.4373 67.0872 13.461 67.3263 13.508 67.5612L14.8523 74.283M16.8127 87.8267L26.3746 87.8267M16.8127 87.8267C18.4108 87.8267 19.8219 88.8695 20.291 90.3972L26.596 110.929C27.0651 112.456 28.4761 113.499 30.0743 113.499L39.9183 113.499C41.9279 113.499 43.5569 111.87 43.5569 109.861L43.5569 87.8267M16.8127 87.8267L11.0115 87.8267C9.002 87.8267 7.37293 86.1977 7.37293 84.1881L7.37293 77.9216C7.37293 75.9121 9.002 74.283 11.0115 74.283L14.8523 74.283M43.5569 74.283L45.7805 74.283L91.0611 69.1541M43.5569 74.283L43.5569 87.8267M43.5569 74.283L26.3746 74.283M43.5569 87.8267L26.3746 87.8267M26.3746 87.8267L26.3746 74.283M26.3746 74.283L14.8523 74.283M66.3993 10.8094L21.9274 10.8094M66.3993 113.499L21.9274 113.499M55.6856 62.7607L48.0041 62.7607M34.8647 62.7607L14.0437 62.7607" stroke="#FFE919" stroke-width="7.27723" stroke-linecap="round"/>
</g>
<defs>
<clipPath id="clip0_4_2">
<rect width="122.5" height="115.627" fill="white" transform="translate(116.127 0.5) rotate(90)"/>
</clipPath>
</defs>
</svg>
